{
	"asset":{
		"copyright":"Simon Bermudez",
		"generator":"Khronos glTF Blender I/O v4.2.69",
		"version":"2.0"
	},
	"scene":0,
	"scenes":[
		{
			"name":"Scene",
			"nodes":[
				2
			]
		}
	],
	"nodes":[
		{
			"mesh":0,
			"name":"Object_2"
		},
		{
			"children":[
				0
			],
			"name":"PenroseTriangeLarge.stl.cleaner.materialmerger.gles"
		},
		{
			"children":[
				1
			],
			"name":"Sketchfab_model",
			"rotation":[
				0.1830126941204071,
				-0.6830127239227295,
				-0.1830126941204071,
				0.6830126643180847
			],
			"scale":[
				0.009999999776482582,
				0.009999999776482582,
				0.009999999776482582
			],
			"translation":[
				0,
				0.04999999701976776,
				0
			]
		}
	],
	"animations":[
		{
			"channels":[
				{
					"sampler":0,
					"target":{
						"node":2,
						"path":"rotation"
					}
				}
			],
			"name":"Sketchfab_modelAction",
			"samplers":[
				{
					"input":3,
					"interpolation":"LINEAR",
					"output":4
				}
			]
		}
	],
	"materials":[
		{
			"doubleSided":true,
			"name":"Scene_-_Root",
			"pbrMetallicRoughness":{
				"roughnessFactor":0.6000000238418579
			}
		}
	],
	"meshes":[
		{
			"name":"Object_0",
			"primitives":[
				{
					"attributes":{
						"POSITION":0,
						"NORMAL":1
					},
					"indices":2,
					"material":0
				}
			]
		}
	],
	"accessors":[
		{
			"bufferView":0,
			"componentType":5126,
			"count":49714,
			"max":[
				4,
				4.330127239227295,
				1
			],
			"min":[
				-4,
				-2.598076105117798,
				-1
			],
			"type":"VEC3"
		},
		{
			"bufferView":1,
			"componentType":5126,
			"count":49714,
			"type":"VEC3"
		},
		{
			"bufferView":2,
			"componentType":5123,
			"count":276186,
			"type":"SCALAR"
		},
		{
			"bufferView":3,
			"componentType":5126,
			"count":181,
			"max":[
				7.5
			],
			"min":[
				0
			],
			"type":"SCALAR"
		},
		{
			"bufferView":4,
			"componentType":5126,
			"count":181,
			"type":"VEC4"
		}
	],
	"bufferViews":[
		{
			"buffer":0,
			"byteLength":596568,
			"byteOffset":0,
			"target":34962
		},
		{
			"buffer":0,
			"byteLength":596568,
			"byteOffset":596568,
			"target":34962
		},
		{
			"buffer":0,
			"byteLength":552372,
			"byteOffset":1193136,
			"target":34963
		},
		{
			"buffer":0,
			"byteLength":724,
			"byteOffset":1745508
		},
		{
			"buffer":0,
			"byteLength":2896,
			"byteOffset":1746232
		}
	],
	"buffers":[
		{
			"byteLength":1749128,
			"uri":"renderify.bin"
		}
	]
}
